<svg width="22" height="21" viewBox="0 0 22 21" fill="none" xmlns="http://www.w3.org/2000/svg">
<path fill-rule="evenodd" clip-rule="evenodd" d="M6.04831 1.52173C3.80759 1.73926 1.5 3.60062 1.5 7.26481C1.5 10.0312 2.91437 12.6103 4.87029 14.7659C6.75015 16.8376 9.08822 18.4701 11 19.4413C12.9118 18.4701 15.2499 16.8376 17.1297 14.7659C19.0856 12.6103 20.5 10.0312 20.5 7.26481C20.5 3.60062 18.1924 1.73926 15.9517 1.52173C14.8192 1.4118 13.7082 1.7198 12.8863 2.41835C12.0728 3.10973 11.5 4.21968 11.5 5.80421H10.5C10.5 4.21968 9.92718 3.10973 9.1137 2.41835C8.29178 1.7198 7.18076 1.4118 6.04831 1.52173ZM11 3.3123C10.6995 2.64748 10.2755 2.09336 9.7613 1.65637C8.70822 0.761362 7.31924 0.393652 5.95169 0.526411C3.19241 0.794277 0.5 3.09192 0.5 7.26481C0.5 10.3762 2.08563 13.1851 4.12971 15.4379C6.17712 17.6943 8.73017 19.445 10.7801 20.449L11 20.5568L11.2199 20.449C13.2698 19.445 15.8229 17.6943 17.8703 15.4379C19.9144 13.1851 21.5 10.3762 21.5 7.26481C21.5 3.09192 18.8076 0.794276 16.0483 0.526412C14.6808 0.393653 13.2918 0.761363 12.2387 1.65637C11.7245 2.09336 11.3005 2.64748 11 3.3123Z" fill="#E7717D"/>
</svg>
